<svg xmlns="http://www.w3.org/2000/svg" width="42" height="42" viewBox="0 0 42 42" version="1.1">
	<path d="M 15.994 0.883 C 7.922 3.503, 2.359 9.010, 1.321 15.407 C 0.505 20.439, 2.351 19.971, 5.013 14.473 C 8.183 7.925, 12.878 4.695, 19.848 4.265 C 27.712 3.781, 32.607 6.642, 36 13.705 C 38.589 19.094, 41 20.605, 41 16.838 C 41 13.052, 36.171 6.185, 31.642 3.531 C 26.953 0.783, 19.952 -0.402, 15.994 0.883 M 15.145 12.440 C 12.315 15.432, 10 18.132, 10 18.440 C 10 18.748, 11.350 19, 13 19 C 15.667 19, 16 18.667, 16 16 C 16 14.350, 16.337 12.963, 16.750 12.917 C 17.163 12.871, 18.602 12.714, 19.948 12.569 C 23.093 12.230, 27.667 16.492, 26.136 18.336 C 25.330 19.307, 25.877 19.496, 28.578 19.181 C 31.607 18.827, 31.899 18.563, 30.834 17.137 C 28.661 14.229, 21.603 7, 20.937 7 C 20.581 7, 17.975 9.448, 15.145 12.440 M 20 17.583 C 20 18.454, 20.534 18.989, 21.188 18.771 C 23.042 18.153, 23.349 16, 21.583 16 C 20.712 16, 20 16.712, 20 17.583 M 9.667 22.667 C 6.888 25.445, 12.069 30.701, 16.493 29.591 C 18.481 29.092, 19 29.339, 19 30.781 C 19 31.781, 18.460 33.140, 17.800 33.800 C 16.867 34.733, 17.578 35, 21 35 C 24.422 35, 25.133 34.733, 24.200 33.800 C 23.540 33.140, 23 31.801, 23 30.825 C 23 29.400, 23.571 29.164, 25.896 29.629 C 29.244 30.299, 33 27.323, 33 24 C 33 21.262, 27.411 21.131, 26.548 23.848 C 25.187 28.138, 16.791 28.430, 16.180 24.209 C 15.939 22.540, 15.185 22, 13.097 22 C 11.577 22, 10.033 22.300, 9.667 22.667 M 20.813 23.683 C 21.534 23.972, 22.397 23.936, 22.729 23.604 C 23.061 23.272, 22.471 23.036, 21.417 23.079 C 20.252 23.127, 20.015 23.364, 20.813 23.683 M 1.399 27.246 C 2.805 34.273, 10.893 40.783, 19.411 41.743 C 23.939 42.253, 31.575 39.599, 35.320 36.212 C 37.562 34.184, 41 27.725, 41 25.540 C 41 23.163, 38.220 23.720, 37.451 26.250 C 36.385 29.762, 32.187 34.852, 28.998 36.501 C 25.299 38.414, 16.737 38.433, 13.069 36.536 C 9.555 34.718, 5.199 29.643, 4.391 26.423 C 4.057 25.090, 3.101 24, 2.267 24 C 1.089 24, 0.895 24.726, 1.399 27.246" stroke="none" fill="black" fill-rule="evenodd"/>
</svg>