<svg width="100" height="100" version="1.1" viewBox="0 0 26.46 26.46" xmlns="http://www.w3.org/2000/svg"><g transform="scale(.05168 .05168)"><path d="m469.7 42.3c-56.4-56.4-147.7-56.4-204 0l-64.6 64.6 34 34 64.6-64.6c35.9-35.9 96.4-39.7 136 0 39.7 39.7 35.9 100.1 0 136l-64.6 64.6 34.1 34.1 64.6-64.6c56.3-56.4 56.3-147.7-0.1-204.1zm-257.3 393.5c-35.9 35.9-96.4 39.7-136 0-39.7-39.7-35.9-100.1 0-136l64.6-64.6-34.1-34.1-64.6 64.6c-56.4 56.4-56.4 147.7 0 204s147.7 56.4 204 0l64.6-64.6-34-34zm-124.2-381.5c-2.1-2.1-5.4-2.1-7.5 0l-26.4 26.4c-2.1 2.1-2.1 5.4 0 7.5l369.6 369.6c2.1 2.1 5.5 2.1 7.5 0l26.4-26.4c2.1-2.1 2.1-5.5 0-7.5z"/></g></svg>
