<svg width="100" height="100" version="1.1" viewBox="0 0 26.46 26.46" xmlns="http://www.w3.org/2000/svg"><g fill="#8247e5ff" transform="matrix(.6908 0 0 .6908 5.167e-8 1.658)"><path class="st0" d="m29 10.2c-0.7-0.4-1.6-0.4-2.4 0l-5.6 3.3-3.8 2.1-5.5 3.3c-0.7 0.4-1.6 0.4-2.4 0l-4.3-2.6c-0.7-0.4-1.2-1.2-1.2-2.1v-5c0-0.8 0.4-1.6 1.2-2.1l4.3-2.5c0.7-0.4 1.6-0.4 2.4 0l4.3 2.6c0.7 0.4 1.2 1.2 1.2 2.1v3.3l3.8-2.2v-3.4c0-0.8-0.4-1.6-1.2-2.1l-8-4.7c-0.7-0.4-1.6-0.4-2.4 0l-8.2 4.8c-0.8 0.4-1.2 1.2-1.2 2v9.4c0 0.8 0.4 1.6 1.2 2.1l8.1 4.7c0.7 0.4 1.6 0.4 2.4 0l5.5-3.2 3.8-2.2 5.5-3.2c0.7-0.4 1.6-0.4 2.4 0l4.3 2.5c0.7 0.4 1.2 1.2 1.2 2.1v5c0 0.8-0.4 1.6-1.2 2.1l-4.2 2.5c-0.7 0.4-1.6 0.4-2.4 0l-4.3-2.5c-0.7-0.4-1.2-1.2-1.2-2.1v-3.2l-3.8 2.2v3.3c0 0.8 0.4 1.6 1.2 2.1l8.1 4.7c0.7 0.4 1.6 0.4 2.4 0l8.1-4.7c0.7-0.4 1.2-1.2 1.2-2.1v-9.5c0-0.8-0.4-1.6-1.2-2.1z"/></g></svg>
